# xmcd
#
# Track frame offsets: 
#        1133
#        9235
#        25467
#        47618
#        66508
#        86973
#        103339
#        119241
#        133524
#        157747
#        177703
#        211294
#
# Disc length: 3060 seconds
#
# Revision: 0
# Processed by: cddbd v1.5.2PL0 Copyright (c) Steve Scherf et al.
# Submitted via: ExactAudioCopy v1.0b2
#
DISCID=b30be50c
DTITLE=Banderas - Beast Sounds and Parlour Tricks
DYEAR=2008
DGENRE=Rock
TTITLE0=Alligators in the Palisades
TTITLE1=Click. Crash. Boom.
TTITLE2=Disgraceland
TTITLE3=Cosmic Boss
TTITLE4=We Got the Night
TTITLE5=Rocket
TTITLE6=The Legend of the Suicide Kid
TTITLE7=$50 Pyramid Scheme
TTITLE8=Ground Out Heel
TTITLE9=La Zona
TTITLE10=Mandragoria
TTITLE11=That Full Moon Feeling
EXTD=
EXTT0=
EXTT1=
EXTT2=
EXTT3=
EXTT4=
EXTT5=
EXTT6=
EXTT7=
EXTT8=
EXTT9=
EXTT10=
EXTT11=
PLAYORDER=
